<?xml version="1.0" encoding="UTF-8" standalone="no"?>
<!-- Created with Inkscape (http://www.inkscape.org/) -->

<svg
   xmlns:dc="http://purl.org/dc/elements/1.1/"
   xmlns:cc="http://creativecommons.org/ns#"
   xmlns:rdf="http://www.w3.org/1999/02/22-rdf-syntax-ns#"
   xmlns:svg="http://www.w3.org/2000/svg"
   xmlns="http://www.w3.org/2000/svg"
   xmlns:sodipodi="http://sodipodi.sourceforge.net/DTD/sodipodi-0.dtd"
   xmlns:inkscape="http://www.inkscape.org/namespaces/inkscape"
   width="122.86446"
   height="55.571838"
   id="svg2988"
   version="1.1"
   inkscape:version="0.48.4 r9939"
   sodipodi:docname="Neues Dokument 1">
  <defs
     id="defs2990" />
  <sodipodi:namedview
     id="base"
     pagecolor="#ffffff"
     bordercolor="#666666"
     borderopacity="1.0"
     inkscape:pageopacity="0.0"
     inkscape:pageshadow="2"
     inkscape:zoom="1.979899"
     inkscape:cx="217.15741"
     inkscape:cy="137.30142"
     inkscape:document-units="px"
     inkscape:current-layer="layer1"
     showgrid="false"
     units="mm"
     fit-margin-top="1"
     fit-margin-left="1"
     fit-margin-bottom="1"
     fit-margin-right="1"
     inkscape:window-width="1422"
     inkscape:window-height="922"
     inkscape:window-x="93"
     inkscape:window-y="0"
     inkscape:window-maximized="0" />
  <metadata
     id="metadata2993">
    <rdf:RDF>
      <cc:Work
         rdf:about="">
        <dc:format>image/svg+xml</dc:format>
        <dc:type
           rdf:resource="http://purl.org/dc/dcmitype/StillImage" />
        <dc:title></dc:title>
      </cc:Work>
    </rdf:RDF>
  </metadata>
  <g
     inkscape:label="Ebene 1"
     inkscape:groupmode="layer"
     id="layer1"
     transform="translate(-11.624282,-984.67927)">
    <g
       id="g3495"
       transform="translate(-17.67767,9.0913729)">
      <g
         transform="translate(-61.114229,-12.626907)"
         id="g3383">
        <path
           inkscape:connector-curvature="0"
           id="path3068"
           d="m 139.99221,1027.7079 c -2.50747,1.8343 -7.42645,3.2933 -9.15834,-0.2514 -1.32618,-3.9586 4.82916,-6.6395 7.20193,-3.3972 0.35737,2.2038 4.03727,6.9853 5.24349,2.7781 1.24345,-6.4182 -7.61115,-11.9637 -12.69498,-7.6454 -3.38924,3.1864 -2.39249,9.0776 0.90045,11.9584 1.78853,3.2681 6.99826,0.359 8.55247,3.4997 -4.07544,1.6471 -9.01093,-0.6046 -11.42752,-4.0469 -2.81211,-4.1782 -2.75234,-11.1526 2.11846,-13.7949 7.05171,-3.6411 16.81495,4.175 14.08937,11.8571 -1.16276,3.7837 -7.47755,2.5467 -7.3117,-1.3533 1.60649,-4.2029 -6.83376,-2.8269 -4.10731,0.3303 1.93636,1.8692 6.58509,-4.0233 6.59368,0.066 z"
           style="color:#000000;fill:#000000;fill-opacity:1;fill-rule:nonzero;stroke:none;stroke-width:7.08661413;marker:none;visibility:visible;display:inline;overflow:visible;enable-background:accumulate" />
        <path
           inkscape:connector-curvature="0"
           id="path3072"
           d="m 155.7307,1025.1602 c -3.62161,-3.8503 -5.29015,5.0573 -0.7187,4.1282 1.4958,-0.3929 1.55017,-6.1224 3.25046,-2.6214 1.37147,3.6591 2.45302,8.111 0.48487,11.7452 -2.05524,3.3393 -6.85455,1.6996 -7.94529,-1.6199 0.1052,-3.1693 2.80024,2.6053 4.89575,1.0211 4.32926,-1.0671 1.87024,-5.8621 1.36339,-8.7039 -1.15502,-1.5918 0.93989,-4.1559 1.31152,-1.3667 0.3348,3.3025 -4.12924,4.3248 -6.30257,2.5255 -1.88178,-1.619 -3.59289,-5.0733 -1.06994,-6.9626 1.71092,-1.6898 5.37862,-1.2902 5.74923,1.395 -0.069,0.4444 -0.64872,0.7717 -1.01872,0.4595 z"
           style="color:#000000;fill:#000000;fill-opacity:1;fill-rule:nonzero;stroke:none;stroke-width:7.08661413;marker:none;visibility:visible;display:inline;overflow:visible;enable-background:accumulate" />
        <path
           inkscape:connector-curvature="0"
           id="path3074"
           d="m 163.21015,1025.375 c 1.57072,1.3667 -0.98643,6.1371 -0.85413,2.1193 -0.31014,-4.3267 6.6898,-4.3018 6.22058,0.099 0.22591,2.9033 -2.93652,0.5956 -0.60923,-0.693 2.75098,-2.7564 6.61761,-0.085 5.54952,3.5031 -0.0484,2.248 -3.1144,3.048 -2.43847,0.1583 1.46987,-2.2948 -1.63217,-3.9265 -2.38822,-1.1671 -2.90521,2.9491 -2.2702,-6.5429 -3.91872,-2.1794 0.24838,5.0827 -5.76702,1.8392 -3.22645,-1.7965 0.23238,-1.1812 1.27869,-1.0018 1.66512,-0.043 z"
           style="color:#000000;fill:#000000;fill-opacity:1;fill-rule:nonzero;stroke:none;stroke-width:7.08661413;marker:none;visibility:visible;display:inline;overflow:visible;enable-background:accumulate" />
        <path
           inkscape:connector-curvature="0"
           id="path3076"
           d="m 182.52759,1024.9436 c -2.28252,1.3184 -4.09349,5.3619 -6.97661,4.6299 0.54724,-2.3392 3.60951,-4.7518 6.11788,-5.4172 0.43594,0 0.78597,0.3795 0.85873,0.7873 z"
           style="color:#000000;fill:#000000;fill-opacity:1;fill-rule:nonzero;stroke:none;stroke-width:7.08661413;marker:none;visibility:visible;display:inline;overflow:visible;enable-background:accumulate" />
        <path
           inkscape:connector-curvature="0"
           id="path3078"
           d="m 174.90714,1024.0315 c 1.77775,2.4516 5.60839,3.1642 6.43725,6.2896 -0.51525,2.2016 -3.35557,-1.6912 -4.75622,-2.2781 -0.86049,-0.8446 -3.94914,-3.0522 -1.68103,-4.0115 z"
           style="color:#000000;fill:#000000;fill-opacity:1;fill-rule:nonzero;stroke:none;stroke-width:7.08661413;marker:none;visibility:visible;display:inline;overflow:visible;enable-background:accumulate" />
        <path
           inkscape:connector-curvature="0"
           id="path3080"
           d="m 188.03748,1028.9157 c -1.08321,2.1189 2.971,0.8308 0.26768,0.2256 -4.59415,2.2656 1.00979,-5.0408 2.21105,-0.5677 3.17175,4.3364 -6.04885,4.6905 -4.20973,0.3228 0.38824,-1.1422 2.22423,-1.7621 1.731,0.019 z"
           style="color:#000000;fill:#000000;fill-opacity:1;fill-rule:nonzero;stroke:none;stroke-width:7.08661413;marker:none;visibility:visible;display:inline;overflow:visible;enable-background:accumulate" />
        <path
           inkscape:connector-curvature="0"
           id="path3082"
           d="m 201.7143,1024.7809 c -2.19602,-1.9345 -5.91412,0.7069 -5.89246,3.2503 3.064,2.9193 4.01631,-5.5684 6.96072,-2.6125 2.04421,1.4407 0.17114,7.1658 -1.46122,3.4204 -1.37221,-1.134 0.78553,-5.0418 0.39936,-1.8898 -0.7007,3.5128 -6.09505,4.8879 -8.26045,2.0281 -0.99598,-2.9378 1.99478,-5.6572 4.7558,-6.0262 1.35359,-0.8356 6.01326,0.4861 3.49825,1.8297 z"
           style="color:#000000;fill:#000000;fill-opacity:1;fill-rule:nonzero;stroke:none;stroke-width:7.08661413;marker:none;visibility:visible;display:inline;overflow:visible;enable-background:accumulate" />
        <path
           inkscape:connector-curvature="0"
           id="path3084"
           d="m 209.20907,1009.2908 c 0.0155,7.2075 -0.30317,14.4489 -1.62183,21.5485 -2.88878,-1.786 -1.03031,-5.4199 -0.51345,-7.9677 0.57153,-2.7414 0.13884,-5.4771 0.23098,-8.2653 -0.1724,-1.683 -0.21229,-6.6272 1.82603,-5.6624 l 0.0391,0.1734 0.0391,0.1734 4e-5,10e-5 0,0 z"
           style="color:#000000;fill:#000000;fill-opacity:1;fill-rule:nonzero;stroke:none;stroke-width:7.08661413;marker:none;visibility:visible;display:inline;overflow:visible;enable-background:accumulate" />
        <path
           inkscape:connector-curvature="0"
           id="path3086"
           d="m 205.59059,1018.8117 c 2.87006,-1.819 6.7764,3.6921 1.65612,2.1263 -1.13075,0.039 -3.69591,-1.0967 -1.65612,-2.1263 z"
           style="color:#000000;fill:#000000;fill-opacity:1;fill-rule:nonzero;stroke:none;stroke-width:7.08661413;marker:none;visibility:visible;display:inline;overflow:visible;enable-background:accumulate" />
      </g>
      <g
         transform="translate(17.172593,-36.365492)"
         id="g3370">
        <path
           style="color:#000000;fill:#000000;fill-opacity:1;fill-rule:nonzero;stroke:none;stroke-width:7.08661413;marker:none;visibility:visible;display:inline;overflow:visible;enable-background:accumulate"
           d="m 67.601306,1028.9808 c -2.19543,1.4453 1.97289,3.9365 1.64462,1.2774 -0.0168,-1.7638 -4.67507,-0.4399 -2.77712,-2.5464 1.88816,-1.7167 4.60639,0.4982 4.45539,2.7268 0.47484,2.3678 -1.95008,4.1197 -4.06102,3.0905 -2.12494,-0.6429 -1.7345,-3.5654 -0.93181,-5.1244 0.62245,-1.3326 1.5408,-0.4361 1.66994,0.5761 z"
           id="path3036"
           inkscape:connector-curvature="0" />
        <path
           style="color:#000000;fill:#000000;fill-opacity:1;fill-rule:nonzero;stroke:none;stroke-width:7.08661413;marker:none;visibility:visible;display:inline;overflow:visible;enable-background:accumulate"
           d="m 81.456466,1023.2086 c -2.53796,0.5336 -0.90434,3.4837 -0.39802,5.0042 1.01041,1.8348 0.0649,4.3716 -2.10546,4.6414 -1.61574,0.096 -4.75489,-0.5561 -4.44259,-2.582 1.27024,-1.3545 2.7424,1.9496 4.34802,0.1875 2.08498,-1.9303 -1.20547,-3.644 -0.9242,-5.7006 0.0393,-1.7798 1.5438,-4.2469 3.59083,-3.6192 1.25897,0.5445 2.20304,2.7028 -0.0686,2.0687 z"
           id="path3040"
           inkscape:connector-curvature="0" />
        <path
           style="color:#000000;fill:#000000;fill-opacity:1;fill-rule:nonzero;stroke:none;stroke-width:7.08661413;marker:none;visibility:visible;display:inline;overflow:visible;enable-background:accumulate"
           d="m 87.596526,1023.4061 c -1.65681,1.7888 -1.17419,4.9873 0.54962,6.5666 2.06824,1.0371 2.88467,-1.9013 2.52734,-3.4157 0.53064,-2.2304 1.41982,-0.2051 1.54461,0.932 1.25534,1.6784 -1.34453,4.5327 -1.80547,1.5774 -0.84547,-1.5493 -1.00201,-3.845 0.3494,-5.1688 2.35519,0.1236 2.43479,3.7936 1.58687,5.503 -0.68944,2.1148 -3.37707,3.8434 -5.36858,2.2293 -2.72894,-2.2149 -3.11211,-7.2011 -0.21413,-9.4412 0.68558,-0.6248 0.8121,0.8394 0.83034,1.2174 z"
           id="path3046"
           inkscape:connector-curvature="0" />
        <path
           style="color:#000000;fill:#000000;fill-opacity:1;fill-rule:nonzero;stroke:none;stroke-width:7.08661413;marker:none;visibility:visible;display:inline;overflow:visible;enable-background:accumulate"
           d="m 96.896826,1024.6449 c 0.80547,0.5554 3.879634,1.0342 3.614414,-0.2633 -1.697324,-1.5372 -4.715894,0.449 -3.237934,2.5354 1.01928,2.1693 3.577684,3.2994 5.749794,2.9566 1.8698,1.9175 -2.64783,1.8656 -3.799294,1.2741 -1.96308,-0.9669 -3.98585,-2.515 -4.20821,-4.9092 -0.53886,-2.2025 1.2216,-4.6812 3.61108,-4.3006 2.303794,-0.6042 5.102964,2.0953 3.915584,4.3566 -1.44775,1.5787 -3.843564,0.7136 -5.604924,0.1975 -1.48658,-0.3596 -1.65569,-1.4547 -0.0405,-1.8471 z"
           id="path3048"
           inkscape:connector-curvature="0" />
        <path
           style="color:#000000;fill:#000000;fill-opacity:1;fill-rule:nonzero;stroke:none;stroke-width:7.08661413;marker:none;visibility:visible;display:inline;overflow:visible;enable-background:accumulate"
           d="m 111.19178,1023.8078 c -2.46624,-0.1821 -2.37845,2.7394 -1.38236,4.2121 0.6083,1.8674 2.67548,3.5328 1.92409,5.6355 -1.41551,1.8458 -4.48729,1.3848 -6.17579,0.1467 -1.00229,-1.268 0.82922,-2.08 1.66907,-0.9378 2.69309,1.0647 3.16047,-2.6329 1.02313,-3.5672 -1.53239,-2.1009 -1.36422,-5.6045 0.77655,-7.2358 1.23502,-1.346 5.23354,1.3366 2.37743,1.7328 l -0.21212,0.014 z"
           id="path3052"
           inkscape:connector-curvature="0" />
        <path
           style="color:#000000;fill:#000000;fill-opacity:1;fill-rule:nonzero;stroke:none;stroke-width:7.08661413;marker:none;visibility:visible;display:inline;overflow:visible;enable-background:accumulate"
           d="m 119.99169,1023.8078 c -2.94082,0.091 -1.45203,3.1184 -0.27364,4.4109 1.58375,1.6652 0.2928,3.804 -1.63557,4.2898 -1.07113,0.3399 -4.54289,0.9487 -3.9377,-0.7553 1.02443,-1.2117 5.77862,-0.5873 3.86192,-3.0428 -1.88892,-1.0722 -2.50175,-3.6969 -1.23928,-5.4743 0.69042,-1.7701 4.71832,-2.1113 4.2893,0.2511 -0.15582,0.4208 -0.69832,0.5953 -1.06503,0.3206 z"
           id="path3090"
           inkscape:connector-curvature="0" />
        <path
           style="color:#000000;fill:#000000;fill-opacity:1;fill-rule:nonzero;stroke:none;stroke-width:7.08661413;marker:none;visibility:visible;display:inline;overflow:visible;enable-background:accumulate"
           d="m 20.420235,1017.316 c -1.76065,4.1962 -2.49859,8.7478 -2.73277,13.2707 0.95897,1.9999 3.07006,-0.6908 2.28827,-2.0036 2.49622,-0.7072 2.28155,3.0689 0.89661,4.153 -1.56925,1.6161 -4.61134,0.6258 -5.04238,-1.5632 -0.50145,-2.3276 0.33885,-4.683 0.53718,-7.0101 0.47818,-2.8016 1.22522,-5.5827 2.50281,-8.1325 0.74862,-0.738 2.21078,0.3993 1.55028,1.2857 z"
           id="path3211"
           inkscape:connector-curvature="0" />
        <path
           style="color:#000000;fill:#000000;fill-opacity:1;fill-rule:nonzero;stroke:none;stroke-width:7.08661413;marker:none;visibility:visible;display:inline;overflow:visible;enable-background:accumulate"
           d="m 25.688325,1025.1488 c -0.13323,1.7536 -0.47636,4.7617 1.6212,5.3432 2.03227,-0.5433 1.24023,-3.4933 2.78506,-4.4448 2.12598,0.3991 0.9641,3.2641 1.91638,4.7222 0.70959,2.0662 -1.93188,2.5004 -2.22674,0.4421 -0.071,-1.7714 -1.26216,-4.0104 0.19639,-5.457 2.57166,-0.3328 1.21573,3.3147 0.31629,4.4947 -0.60566,1.7044 -2.688,3.4596 -4.48395,2.2875 -2.16778,-1.8656 -2.47136,-5.0185 -2.12896,-7.6856 0.29562,-1.0795 2.31026,-1.0331 2.00433,0.2977 z"
           id="path3213"
           inkscape:connector-curvature="0" />
        <path
           style="color:#000000;fill:#000000;fill-opacity:1;fill-rule:nonzero;stroke:none;stroke-width:7.08661413;marker:none;visibility:visible;display:inline;overflow:visible;enable-background:accumulate"
           d="m 37.428256,1016.3547 c 0.51693,4.8363 -0.24461,9.6858 -0.0659,14.5298 -2.708971,-0.2064 0.26901,-2.7634 1.1155,-3.5786 0.3383,-1.5459 3.3664,-3.5542 3.09513,-0.8251 0.12947,1.8976 0.38257,4.3267 2.31912,5.2427 2.12515,1.3308 -0.6795,4.0767 -1.67643,1.5399 -1.45338,-1.8747 -3.17609,-4.0797 -2.66074,-6.6122 -0.3259,-2.6654 4.1784,-0.4093 1.48279,0.7335 -1.79773,1.1807 -2.21226,3.9741 -4.538811,4.4248 -1.92134,-0.3528 -1.07542,-2.9447 -1.13271,-4.3412 0.15248,-2.7197 0.12202,-5.4553 0.2766,-8.1665 -0.66788,-1.2934 0.0187,-5.3484 1.764231,-3.1775 l 0.0212,0.2304 0,0 z"
           id="path3219"
           inkscape:connector-curvature="0" />
        <path
           style="color:#000000;fill:#000000;fill-opacity:1;fill-rule:nonzero;stroke:none;stroke-width:7.08661413;marker:none;visibility:visible;display:inline;overflow:visible;enable-background:accumulate"
           d="m 51.457086,1025.0175 c -2.19748,-0.6966 -5.2074,1.2892 -4.51566,3.7512 1.79996,1.7833 3.16384,-3.001 4.86809,-1.0341 0.71904,1.6097 1.35147,3.5743 1.41604,5.2588 -1.71097,1.5059 -2.50192,-1.6441 -2.91058,-2.837 -0.70145,-1.1319 1.55635,-2.5193 0.62863,-0.6949 -0.95308,1.9291 -4.31753,2.9283 -5.5606,0.7616 -1.63587,-2.9394 0.71011,-6.8136 3.91131,-7.2809 1.3174,-0.9092 5.13953,1.2692 2.16277,2.0753 z"
           id="path3221"
           inkscape:connector-curvature="0" />
        <path
           style="color:#000000;fill:#000000;fill-opacity:1;fill-rule:nonzero;stroke:none;stroke-width:7.08661413;marker:none;visibility:visible;display:inline;overflow:visible;enable-background:accumulate"
           d="m 61.844326,1024.1282 c -1.97554,0.3846 -2.08236,2.9407 -1.16431,4.3513 1.57709,1.4706 0.96957,3.9736 -1.30766,4.1894 -1.19308,0.4718 -4.84677,-0.1256 -3.44687,-1.8215 1.11555,-0.861 4.28266,0.4612 2.92822,-1.7687 -1.07052,-1.7965 -1.42386,-4.3244 0.37529,-5.7978 0.87936,-1.3323 4.41123,-1.3404 2.95261,0.7672 l -0.33728,0.08 0,0 z"
           id="path3223"
           inkscape:connector-curvature="0" />
      </g>
    </g>
  </g>
</svg>
